<svg id="svg" version="1.1" width="400" height="400" xmlns="http://www.w3.org/2000/svg" xmlns:xlink="http://www.w3.org/1999/xlink" style="display: block;"><g id="svgg"><path id="path0" d="M147.913 30.282 C 144.026 33.266,144.000 33.791,144.000 108.551 L 144.000 181.233 137.250 180.563 C 133.537 180.195,128.025 179.486,125.000 178.988 C 119.866 178.142,114.660 177.446,94.500 174.911 C 90.100 174.357,83.791 173.484,80.480 172.970 C 43.642 167.250,37.078 173.072,57.471 193.380 C 61.404 197.296,69.094 204.778,74.561 210.006 C 107.650 241.653,132.147 265.217,136.965 270.032 C 147.740 280.803,152.496 281.204,184.000 274.004 C 186.475 273.439,190.975 272.529,194.000 271.984 C 197.025 271.438,201.525 270.598,204.000 270.118 C 206.475 269.637,211.875 268.726,216.000 268.092 C 220.125 267.458,225.300 266.533,227.500 266.037 C 229.700 265.540,234.425 264.623,238.000 263.999 C 256.645 260.744,259.161 258.848,292.500 222.931 C 303.798 210.759,309.505 204.498,312.796 200.665 C 315.408 197.623,316.375 197.067,317.472 197.977 C 318.877 199.143,328.212 198.298,340.762 195.870 C 351.244 193.841,355.787 183.949,348.968 178.000 C 348.652 177.725,347.420 175.895,346.229 173.934 C 345.039 171.973,343.150 169.541,342.032 168.529 C 340.809 167.422,340.000 165.437,340.000 163.542 C 340.000 160.915,335.800 153.412,332.979 151.000 C 332.657 150.725,331.071 148.700,329.453 146.500 C 327.835 144.300,326.284 142.275,326.006 142.000 C 324.495 140.506,317.083 131.102,315.522 128.699 C 311.369 122.303,302.106 121.369,283.806 125.500 C 277.715 126.875,272.004 128.022,271.116 128.048 C 270.227 128.074,267.925 128.884,266.000 129.848 L 262.500 131.600 251.392 120.550 C 245.282 114.472,228.675 98.250,214.487 84.500 C 200.299 70.750,182.348 53.312,174.596 45.750 C 157.858 29.422,152.830 26.507,147.913 30.282 M176.000 64.000 C 181.725 69.225,188.245 75.300,190.488 77.500 C 192.731 79.700,197.027 83.725,200.033 86.444 C 203.040 89.163,211.125 96.622,218.000 103.019 C 224.875 109.416,232.950 116.867,235.944 119.575 C 238.938 122.284,242.767 125.850,244.451 127.500 C 246.136 129.150,249.440 132.202,251.794 134.281 L 256.075 138.062 256.427 154.281 C 256.621 163.202,257.068 186.025,257.419 205.000 C 257.771 223.975,258.245 241.596,258.471 244.158 L 258.884 248.816 249.192 249.280 C 239.221 249.757,226.663 251.689,205.500 256.000 C 200.412 257.037,191.693 258.680,181.500 260.524 C 177.100 261.320,171.475 262.447,169.000 263.028 C 166.525 263.610,162.453 264.340,159.951 264.651 L 155.403 265.216 156.140 257.858 C 156.545 253.811,156.904 204.461,156.938 148.191 L 157.000 45.882 161.296 50.191 C 163.658 52.561,170.275 58.775,176.000 64.000 M310.203 143.785 C 318.130 154.091,320.589 157.179,324.169 161.325 L 326.839 164.416 323.957 167.958 C 322.373 169.906,319.714 173.075,318.049 175.000 C 316.384 176.925,314.659 178.950,314.216 179.500 C 307.876 187.374,293.025 206.085,291.500 208.119 C 282.887 219.611,271.190 234.840,269.750 236.437 C 268.788 237.504,268.000 238.672,268.000 239.033 C 268.000 239.394,266.876 240.996,265.501 242.594 L 263.002 245.500 263.015 230.500 C 263.022 222.250,263.448 206.950,263.963 196.500 C 264.478 186.050,265.005 169.108,265.134 158.852 C 265.296 145.919,265.702 140.332,266.456 140.621 C 267.819 141.145,284.506 138.637,292.500 136.708 C 302.968 134.182,302.750 134.095,310.203 143.785 M339.329 180.544 C 339.944 182.405,339.422 182.676,333.502 183.568 C 329.926 184.107,327.000 184.426,327.000 184.276 C 327.000 184.127,328.619 182.316,330.597 180.252 C 332.575 178.189,334.934 175.400,335.839 174.056 L 337.484 171.612 338.069 175.056 C 338.390 176.950,338.957 179.420,339.329 180.544 M94.000 182.001 C 103.625 182.582,118.813 183.564,127.750 184.183 L 144.000 185.308 144.000 221.243 L 144.000 257.178 140.750 254.454 C 138.963 252.956,129.886 244.479,120.579 235.615 C 111.273 226.752,101.981 217.925,99.930 216.000 C 86.453 203.348,82.493 199.681,74.950 192.872 C 70.302 188.677,65.150 184.053,63.500 182.597 L 60.500 179.949 68.500 180.446 C 72.900 180.720,84.375 181.420,94.000 182.001 M49.861 276.076 C 43.242 276.778,33.544 280.018,32.000 282.045 C 31.725 282.405,30.504 283.225,29.288 283.865 C 23.458 286.935,17.963 300.255,18.036 311.144 C 18.189 334.277,30.458 345.769,56.948 347.594 L 66.832 348.274 67.913 352.569 C 70.232 361.780,80.541 358.841,78.751 349.479 C 78.327 347.261,78.770 346.848,82.888 345.619 C 100.101 340.484,107.242 330.506,107.307 311.500 C 107.405 283.068,89.288 271.896,49.861 276.076 M201.471 276.949 C 200.355 277.402,198.125 280.411,196.514 283.636 C 194.904 286.861,193.338 289.725,193.035 290.000 C 192.733 290.275,191.171 292.975,189.564 296.000 C 187.958 299.025,185.763 303.075,184.686 305.000 C 183.609 306.925,181.251 311.200,179.445 314.500 C 168.695 334.148,165.020 340.293,165.011 338.636 C 165.005 337.611,163.130 335.136,160.845 333.136 C 158.560 331.136,155.445 328.375,153.923 327.000 C 152.401 325.625,149.277 322.818,146.980 320.762 L 142.804 317.025 145.227 316.104 C 147.485 315.245,157.625 309.105,162.750 305.493 C 165.255 303.727,165.871 298.271,163.800 296.200 C 162.389 294.789,157.814 294.606,156.450 295.905 C 155.298 297.002,129.283 312.000,128.531 312.000 C 128.239 312.000,128.000 304.768,128.000 295.929 C 128.000 278.053,127.653 277.000,121.771 277.000 C 115.923 277.000,116.000 276.543,116.000 311.200 C 116.000 345.630,116.221 347.000,121.777 347.000 C 126.740 347.000,128.000 344.457,128.000 334.443 C 128.000 329.249,128.413 325.000,128.918 325.000 C 129.423 325.000,130.488 324.750,131.284 324.444 C 132.169 324.105,135.405 326.379,139.616 330.300 C 143.402 333.826,148.296 338.239,150.491 340.106 C 152.686 341.972,155.358 344.288,156.429 345.250 C 159.557 348.060,163.959 346.940,165.269 343.000 C 165.661 341.819,165.936 341.926,166.561 343.500 C 169.599 351.157,175.664 348.010,182.658 335.147 L 186.816 327.500 204.212 327.228 L 221.608 326.955 223.269 330.228 C 225.776 335.167,231.065 344.336,232.222 345.750 C 237.805 352.572,245.470 340.993,240.000 334.000 C 238.924 332.625,238.034 331.225,238.022 330.888 C 237.958 329.118,209.661 279.235,207.879 277.750 C 205.584 275.838,204.536 275.707,201.471 276.949 M83.532 290.558 C 101.869 299.233,98.866 328.303,79.046 333.987 C 76.418 334.741,76.036 334.541,75.131 331.946 C 73.177 326.341,64.000 327.641,64.000 333.523 C 64.000 337.297,49.269 336.327,40.932 332.004 C 26.216 324.373,26.742 298.170,41.757 290.864 C 51.563 286.092,73.748 285.930,83.532 290.558 M266.500 296.152 C 264.850 296.699,262.516 297.624,261.314 298.208 C 259.604 299.038,258.770 298.913,257.492 297.635 C 255.416 295.559,250.618 295.525,248.571 297.571 C 246.054 300.089,246.219 360.992,248.750 363.255 C 255.068 368.904,259.000 364.802,259.000 352.563 L 259.000 343.269 264.655 345.134 C 276.149 348.926,293.573 347.235,300.575 341.647 C 311.846 332.654,311.697 307.813,300.325 300.020 C 293.286 295.198,275.513 293.165,266.500 296.152 M336.500 296.152 C 334.850 296.699,332.516 297.624,331.314 298.208 C 329.604 299.038,328.770 298.913,327.492 297.635 C 325.692 295.835,321.343 295.499,319.000 296.978 C 317.443 297.961,316.107 353.239,317.463 360.597 C 318.183 364.505,322.018 366.586,325.307 364.855 C 328.695 363.072,328.968 362.142,328.985 352.367 L 329.000 343.234 333.250 344.769 C 339.255 346.937,354.974 347.564,361.893 345.912 C 384.294 340.562,385.478 304.070,363.498 296.421 C 358.862 294.808,341.091 294.631,336.500 296.152 M206.282 298.750 C 207.068 300.262,209.351 304.487,211.356 308.138 C 213.360 311.789,215.000 315.052,215.000 315.388 C 215.000 315.725,210.038 316.000,203.974 316.000 L 192.949 316.000 194.603 312.750 C 197.263 307.528,204.054 296.000,204.471 296.000 C 204.681 296.000,205.497 297.238,206.282 298.750 M287.105 307.013 C 293.538 308.799,297.000 313.694,297.000 321.000 C 297.000 334.083,286.475 338.735,267.623 333.985 C 263.291 332.893,259.579 332.000,259.373 332.000 C 257.530 332.000,259.249 313.834,261.302 311.619 C 265.383 307.216,279.052 304.776,287.105 307.013 M358.671 307.507 C 365.306 310.279,367.866 315.827,366.452 324.369 C 364.498 336.172,354.922 338.624,333.250 332.869 L 329.000 331.740 329.000 322.825 C 329.000 312.431,330.514 309.977,338.135 308.016 C 340.536 307.398,342.950 306.727,343.500 306.525 C 346.130 305.559,355.454 306.163,358.671 307.507 " stroke="none" fill="#FFA03B" fill-rule="evenodd"></path></g></svg>
